<svg xmlns="http://www.w3.org/2000/svg" version="1.1" xmlns:xlink="http://www.w3.org/1999/xlink" xmlns:svgjs="http://svgjs.dev/svgjs" width="1440" height="250" preserveAspectRatio="none" viewBox="0 0 1440 250"><g mask="url(&quot;#SvgjsMask1477&quot;)" fill="none"><rect width="1440" height="250" x="0" y="0" fill="url(&quot;#SvgjsLinearGradient1478&quot;)"></rect><path d="M36 250L286 0L634 0L384 250z" fill="url(&quot;#SvgjsLinearGradient1479&quot;)"></path><path d="M279.6 250L529.6 0L607.6 0L357.6 250z" fill="url(&quot;#SvgjsLinearGradient1479&quot;)"></path><path d="M501.20000000000005 250L751.2 0L943.2 0L693.2 250z" fill="url(&quot;#SvgjsLinearGradient1479&quot;)"></path><path d="M723.8000000000001 250L973.8000000000001 0L1150.8000000000002 0L900.8000000000001 250z" fill="url(&quot;#SvgjsLinearGradient1479&quot;)"></path><path d="M1399 250L1149 0L1015.5 0L1265.5 250z" fill="url(&quot;#SvgjsLinearGradient1480&quot;)"></path><path d="M1194.4 250L944.4000000000001 0L608.4000000000001 0L858.4000000000001 250z" fill="url(&quot;#SvgjsLinearGradient1480&quot;)"></path><path d="M960.8 250L710.8 0L527.8 0L777.8 250z" fill="url(&quot;#SvgjsLinearGradient1480&quot;)"></path><path d="M698.1999999999999 250L448.19999999999993 0L238.19999999999993 0L488.19999999999993 250z" fill="url(&quot;#SvgjsLinearGradient1480&quot;)"></path><path d="M1196.3604980961177 250L1440 6.360498096117709L1440 250z" fill="url(&quot;#SvgjsLinearGradient1479&quot;)"></path><path d="M0 250L243.6395019038823 250L 0 6.360498096117709z" fill="url(&quot;#SvgjsLinearGradient1480&quot;)"></path></g><defs><mask id="SvgjsMask1477"><rect width="1440" height="250" fill="#ffffff"></rect></mask><linearGradient x1="50%" y1="0%" x2="50%" y2="100%" gradientUnits="userSpaceOnUse" id="SvgjsLinearGradient1478"><stop stop-color="#0e2a47" offset="0"></stop><stop stop-color="rgba(158, 0, 0, 1)" offset="1"></stop></linearGradient><linearGradient x1="0%" y1="100%" x2="100%" y2="0%" id="SvgjsLinearGradient1479"><stop stop-color="rgba(0, 0, 0, 0.2)" offset="0"></stop><stop stop-opacity="0" stop-color="rgba(0, 0, 0, 0.2)" offset="0.66"></stop></linearGradient><linearGradient x1="100%" y1="100%" x2="0%" y2="0%" id="SvgjsLinearGradient1480"><stop stop-color="rgba(0, 0, 0, 0.2)" offset="0"></stop><stop stop-opacity="0" stop-color="rgba(0, 0, 0, 0.2)" offset="0.66"></stop></linearGradient></defs></svg>